<mxfile host="65bd71144e">
    <diagram id="poaGRXEQik0mPC6KGio3" name="Page-1">
        <mxGraphModel dx="928" dy="836" grid="1" gridSize="10" guides="1" tooltips="1" connect="1" arrows="1" fold="1" page="1" pageScale="1" pageWidth="827" pageHeight="1169" math="0" shadow="0">
            <root>
                <mxCell id="0"/>
                <mxCell id="1" parent="0"/>
                <mxCell id="48" style="edgeStyle=orthogonalEdgeStyle;html=1;startArrow=none;startFill=0;endArrow=classic;endFill=1;" parent="1" source="9" target="22" edge="1">
                    <mxGeometry relative="1" as="geometry">
                        <Array as="points">
                            <mxPoint x="180" y="480"/>
                            <mxPoint x="540" y="480"/>
                        </Array>
                    </mxGeometry>
                </mxCell>
                <mxCell id="9" value="Upgradeability" style="swimlane;fontStyle=0;childLayout=stackLayout;horizontal=1;startSize=26;fillColor=#ffe6cc;horizontalStack=0;resizeParent=1;resizeParentMax=0;resizeLast=0;collapsible=1;marginBottom=0;strokeColor=#d79b00;swimlaneFillColor=default;" parent="1" vertex="1">
                    <mxGeometry x="100" y="520" width="160" height="104" as="geometry"/>
                </mxCell>
                <mxCell id="51" value="- prevImplementation" style="text;strokeColor=none;fillColor=none;align=left;verticalAlign=top;spacingLeft=4;spacingRight=4;overflow=hidden;rotatable=0;points=[[0,0.5],[1,0.5]];portConstraint=eastwest;" parent="9" vertex="1">
                    <mxGeometry y="26" width="160" height="26" as="geometry"/>
                </mxCell>
                <mxCell id="52" value="- nextImplementation" style="text;strokeColor=none;fillColor=none;align=left;verticalAlign=top;spacingLeft=4;spacingRight=4;overflow=hidden;rotatable=0;points=[[0,0.5],[1,0.5]];portConstraint=eastwest;" parent="9" vertex="1">
                    <mxGeometry y="52" width="160" height="26" as="geometry"/>
                </mxCell>
                <mxCell id="53" value="- setNextImplementation()" style="text;strokeColor=none;fillColor=none;align=left;verticalAlign=top;spacingLeft=4;spacingRight=4;overflow=hidden;rotatable=0;points=[[0,0.5],[1,0.5]];portConstraint=eastwest;" parent="9" vertex="1">
                    <mxGeometry y="78" width="160" height="26" as="geometry"/>
                </mxCell>
                <mxCell id="38" style="edgeStyle=orthogonalEdgeStyle;html=1;startArrow=box;startFill=0;endArrow=block;endFill=0;" parent="1" source="12" target="9" edge="1">
                    <mxGeometry relative="1" as="geometry">
                        <Array as="points">
                            <mxPoint x="80" y="740"/>
                            <mxPoint x="130" y="740"/>
                        </Array>
                    </mxGeometry>
                </mxCell>
                <mxCell id="12" value="IPrevImplementation" style="swimlane;fontStyle=0;childLayout=stackLayout;horizontal=1;startSize=26;fillColor=#dae8fc;horizontalStack=0;resizeParent=1;resizeParentMax=0;resizeLast=0;collapsible=1;marginBottom=0;strokeColor=#6c8ebf;swimlaneFillColor=default;strokeWidth=2;dashed=1;" parent="1" vertex="1">
                    <mxGeometry x="10" y="780" width="140" height="52" as="geometry"/>
                </mxCell>
                <mxCell id="13" value="- logic" style="text;strokeColor=none;fillColor=none;align=left;verticalAlign=top;spacingLeft=4;spacingRight=4;overflow=hidden;rotatable=0;points=[[0,0.5],[1,0.5]];portConstraint=eastwest;" parent="12" vertex="1">
                    <mxGeometry y="26" width="140" height="26" as="geometry"/>
                </mxCell>
                <mxCell id="236" style="edgeStyle=orthogonalEdgeStyle;html=1;fontColor=#808080;strokeColor=#000000;exitX=0.5;exitY=0;exitDx=0;exitDy=0;" edge="1" parent="1" source="16" target="230">
                    <mxGeometry relative="1" as="geometry">
                        <Array as="points">
                            <mxPoint x="800" y="740"/>
                            <mxPoint x="860" y="740"/>
                        </Array>
                    </mxGeometry>
                </mxCell>
                <mxCell id="16" value="Stacking" style="swimlane;fontStyle=0;childLayout=stackLayout;horizontal=1;startSize=26;fillColor=#ffe6cc;horizontalStack=0;resizeParent=1;resizeParentMax=0;resizeLast=0;collapsible=1;marginBottom=0;strokeColor=#d79b00;swimlaneFillColor=default;" parent="1" vertex="1">
                    <mxGeometry x="730" y="780" width="140" height="130" as="geometry"/>
                </mxCell>
                <mxCell id="64" value="- yellowToken" style="text;strokeColor=none;fillColor=none;align=left;verticalAlign=top;spacingLeft=4;spacingRight=4;overflow=hidden;rotatable=0;points=[[0,0.5],[1,0.5]];portConstraint=eastwest;" parent="16" vertex="1">
                    <mxGeometry y="26" width="140" height="26" as="geometry"/>
                </mxCell>
                <mxCell id="65" value="- setYellowToken()" style="text;strokeColor=none;fillColor=none;align=left;verticalAlign=top;spacingLeft=4;spacingRight=4;overflow=hidden;rotatable=0;points=[[0,0.5],[1,0.5]];portConstraint=eastwest;" parent="16" vertex="1">
                    <mxGeometry y="52" width="140" height="26" as="geometry"/>
                </mxCell>
                <mxCell id="66" value="- stack()" style="text;strokeColor=none;fillColor=none;align=left;verticalAlign=top;spacingLeft=4;spacingRight=4;overflow=hidden;rotatable=0;points=[[0,0.5],[1,0.5]];portConstraint=eastwest;" parent="16" vertex="1">
                    <mxGeometry y="78" width="140" height="26" as="geometry"/>
                </mxCell>
                <mxCell id="67" value="- unstack()" style="text;strokeColor=none;fillColor=none;align=left;verticalAlign=top;spacingLeft=4;spacingRight=4;overflow=hidden;rotatable=0;points=[[0,0.5],[1,0.5]];portConstraint=eastwest;" parent="16" vertex="1">
                    <mxGeometry y="104" width="140" height="26" as="geometry"/>
                </mxCell>
                <mxCell id="77" style="edgeStyle=orthogonalEdgeStyle;html=1;startArrow=none;startFill=0;endArrow=classic;endFill=1;" parent="1" source="22" target="70" edge="1">
                    <mxGeometry relative="1" as="geometry"/>
                </mxCell>
                <mxCell id="22" value="ClearingChained" style="swimlane;fontStyle=0;childLayout=stackLayout;horizontal=1;startSize=26;fillColor=#ffe6cc;horizontalStack=0;resizeParent=1;resizeParentMax=0;resizeLast=0;collapsible=1;marginBottom=0;strokeColor=#d79b00;swimlaneFillColor=default;" parent="1" vertex="1">
                    <mxGeometry x="420" y="350" width="240" height="104" as="geometry"/>
                </mxCell>
                <mxCell id="68" value="- requireParticipantNotPresentRecursive()" style="text;strokeColor=none;fillColor=none;align=left;verticalAlign=top;spacingLeft=4;spacingRight=4;overflow=hidden;rotatable=0;points=[[0,0.5],[1,0.5]];portConstraint=eastwest;" parent="22" vertex="1">
                    <mxGeometry y="26" width="240" height="26" as="geometry"/>
                </mxCell>
                <mxCell id="69" value="- registerParticipant()" style="text;strokeColor=none;fillColor=none;align=left;verticalAlign=top;spacingLeft=4;spacingRight=4;overflow=hidden;rotatable=0;points=[[0,0.5],[1,0.5]];portConstraint=eastwest;" parent="22" vertex="1">
                    <mxGeometry y="52" width="240" height="26" as="geometry"/>
                </mxCell>
                <mxCell id="240" value="- requireEligibleFor Stacking / Unstacking ()" style="text;strokeColor=none;fillColor=none;align=left;verticalAlign=top;spacingLeft=4;spacingRight=4;overflow=hidden;rotatable=0;points=[[0,0.5],[1,0.5]];portConstraint=eastwest;" vertex="1" parent="22">
                    <mxGeometry y="78" width="240" height="26" as="geometry"/>
                </mxCell>
                <mxCell id="237" style="edgeStyle=orthogonalEdgeStyle;curved=1;html=1;fontColor=#808080;strokeColor=#000000;" edge="1" parent="1" source="23" target="22">
                    <mxGeometry relative="1" as="geometry"/>
                </mxCell>
                <mxCell id="23" value="Registry" style="swimlane;fontStyle=0;childLayout=stackLayout;horizontal=1;startSize=26;fillColor=#ffe6cc;horizontalStack=0;resizeParent=1;resizeParentMax=0;resizeLast=0;collapsible=1;marginBottom=0;strokeColor=#d79b00;swimlaneFillColor=default;" parent="1" vertex="1">
                    <mxGeometry x="470" y="520" width="140" height="156" as="geometry"/>
                </mxCell>
                <mxCell id="62" value="- hasParticipant()" style="text;strokeColor=none;fillColor=none;align=left;verticalAlign=top;spacingLeft=4;spacingRight=4;overflow=hidden;rotatable=0;points=[[0,0.5],[1,0.5]];portConstraint=eastwest;" parent="23" vertex="1">
                    <mxGeometry y="26" width="140" height="26" as="geometry"/>
                </mxCell>
                <mxCell id="59" value="- validateParticipant" style="text;strokeColor=none;fillColor=none;align=left;verticalAlign=top;spacingLeft=4;spacingRight=4;overflow=hidden;rotatable=0;points=[[0,0.5],[1,0.5]];portConstraint=eastwest;" parent="23" vertex="1">
                    <mxGeometry y="52" width="140" height="26" as="geometry"/>
                </mxCell>
                <mxCell id="60" value="- suspendParticipant" style="text;strokeColor=none;fillColor=none;align=left;verticalAlign=top;spacingLeft=4;spacingRight=4;overflow=hidden;rotatable=0;points=[[0,0.5],[1,0.5]];portConstraint=eastwest;" parent="23" vertex="1">
                    <mxGeometry y="78" width="140" height="26" as="geometry"/>
                </mxCell>
                <mxCell id="61" value="- reinstateParticipant" style="text;strokeColor=none;fillColor=none;align=left;verticalAlign=top;spacingLeft=4;spacingRight=4;overflow=hidden;rotatable=0;points=[[0,0.5],[1,0.5]];portConstraint=eastwest;" parent="23" vertex="1">
                    <mxGeometry y="104" width="140" height="26" as="geometry"/>
                </mxCell>
                <mxCell id="63" value="- setParticipantData()" style="text;strokeColor=none;fillColor=none;align=left;verticalAlign=top;spacingLeft=4;spacingRight=4;overflow=hidden;rotatable=0;points=[[0,0.5],[1,0.5]];portConstraint=eastwest;" parent="23" vertex="1">
                    <mxGeometry y="130" width="140" height="26" as="geometry"/>
                </mxCell>
                <mxCell id="47" style="edgeStyle=orthogonalEdgeStyle;html=1;startArrow=none;startFill=0;endArrow=classic;endFill=1;exitX=0.5;exitY=0;exitDx=0;exitDy=0;" parent="1" source="33" target="23" edge="1">
                    <mxGeometry relative="1" as="geometry">
                        <mxPoint x="610" y="830" as="sourcePoint"/>
                        <Array as="points">
                            <mxPoint x="460" y="780"/>
                            <mxPoint x="460" y="740"/>
                            <mxPoint x="510" y="740"/>
                        </Array>
                    </mxGeometry>
                </mxCell>
                <mxCell id="33" value="Identity" style="swimlane;fontStyle=0;childLayout=stackLayout;horizontal=1;startSize=26;fillColor=#ffe6cc;horizontalStack=0;resizeParent=1;resizeParentMax=0;resizeLast=0;collapsible=1;marginBottom=0;strokeColor=#d79b00;swimlaneFillColor=default;" parent="1" vertex="1">
                    <mxGeometry x="390" y="780" width="140" height="52" as="geometry"/>
                </mxCell>
                <mxCell id="35" value="- identity related logic" style="text;strokeColor=none;fillColor=none;align=left;verticalAlign=top;spacingLeft=4;spacingRight=4;overflow=hidden;rotatable=0;points=[[0,0.5],[1,0.5]];portConstraint=eastwest;" parent="33" vertex="1">
                    <mxGeometry y="26" width="140" height="26" as="geometry"/>
                </mxCell>
                <mxCell id="39" style="edgeStyle=orthogonalEdgeStyle;html=1;startArrow=box;startFill=0;endArrow=block;endFill=0;" parent="1" source="36" target="9" edge="1">
                    <mxGeometry relative="1" as="geometry">
                        <Array as="points">
                            <mxPoint x="280" y="740"/>
                            <mxPoint x="230" y="740"/>
                        </Array>
                    </mxGeometry>
                </mxCell>
                <mxCell id="36" value="INextImplementation" style="swimlane;fontStyle=0;childLayout=stackLayout;horizontal=1;startSize=26;fillColor=#dae8fc;horizontalStack=0;resizeParent=1;resizeParentMax=0;resizeLast=0;collapsible=1;marginBottom=0;strokeColor=#6c8ebf;swimlaneFillColor=default;dashed=1;strokeWidth=2;" parent="1" vertex="1">
                    <mxGeometry x="210" y="780" width="140" height="52" as="geometry"/>
                </mxCell>
                <mxCell id="37" value="- logic" style="text;strokeColor=none;fillColor=none;align=left;verticalAlign=top;spacingLeft=4;spacingRight=4;overflow=hidden;rotatable=0;points=[[0,0.5],[1,0.5]];portConstraint=eastwest;" parent="36" vertex="1">
                    <mxGeometry y="26" width="140" height="26" as="geometry"/>
                </mxCell>
                <mxCell id="42" style="edgeStyle=orthogonalEdgeStyle;html=1;startArrow=none;startFill=0;endArrow=classic;endFill=1;" parent="1" source="43" target="9" edge="1">
                    <mxGeometry relative="1" as="geometry">
                        <mxPoint x="180" y="700" as="sourcePoint"/>
                    </mxGeometry>
                </mxCell>
                <mxCell id="239" style="edgeStyle=orthogonalEdgeStyle;html=1;fontColor=#808080;strokeColor=#000000;" edge="1" parent="1" source="43" target="16">
                    <mxGeometry relative="1" as="geometry"/>
                </mxCell>
                <mxCell id="43" value="AccessControl" style="rounded=0;whiteSpace=wrap;html=1;strokeWidth=1;fillColor=#d5e8d4;strokeColor=#82b366;" parent="1" vertex="1">
                    <mxGeometry x="470" y="1000" width="140" height="30" as="geometry"/>
                </mxCell>
                <mxCell id="55" style="edgeStyle=orthogonalEdgeStyle;html=1;startArrow=none;startFill=0;endArrow=classic;endFill=1;" parent="1" source="43" target="23" edge="1">
                    <mxGeometry relative="1" as="geometry">
                        <mxPoint x="630" y="616" as="sourcePoint"/>
                        <Array as="points">
                            <mxPoint x="570" y="890"/>
                            <mxPoint x="570" y="890"/>
                        </Array>
                    </mxGeometry>
                </mxCell>
                <mxCell id="82" style="edgeStyle=orthogonalEdgeStyle;html=1;startArrow=none;startFill=0;endArrow=classic;endFill=1;" parent="1" source="70" target="78" edge="1">
                    <mxGeometry relative="1" as="geometry"/>
                </mxCell>
                <mxCell id="70" value="ClearingMigratable" style="swimlane;fontStyle=0;childLayout=stackLayout;horizontal=1;startSize=26;fillColor=#ffe6cc;horizontalStack=0;resizeParent=1;resizeParentMax=0;resizeLast=0;collapsible=1;marginBottom=0;strokeColor=#d79b00;swimlaneFillColor=default;" parent="1" vertex="1">
                    <mxGeometry x="420" y="190" width="240" height="104" as="geometry"/>
                </mxCell>
                <mxCell id="71" value="- migrateParticipant()" style="text;strokeColor=none;fillColor=none;align=left;verticalAlign=top;spacingLeft=4;spacingRight=4;overflow=hidden;rotatable=0;points=[[0,0.5],[1,0.5]];portConstraint=eastwest;" parent="70" vertex="1">
                    <mxGeometry y="26" width="240" height="26" as="geometry"/>
                </mxCell>
                <mxCell id="72" value="- _migrateParticipantData()" style="text;strokeColor=none;fillColor=none;align=left;verticalAlign=top;spacingLeft=4;spacingRight=4;overflow=hidden;rotatable=0;points=[[0,0.5],[1,0.5]];portConstraint=eastwest;" parent="70" vertex="1">
                    <mxGeometry y="52" width="240" height="26" as="geometry"/>
                </mxCell>
                <mxCell id="76" value="- _migrateLockedTokens()" style="text;strokeColor=none;fillColor=none;align=left;verticalAlign=top;spacingLeft=4;spacingRight=4;overflow=hidden;rotatable=0;points=[[0,0.5],[1,0.5]];portConstraint=eastwest;" parent="70" vertex="1">
                    <mxGeometry y="78" width="240" height="26" as="geometry"/>
                </mxCell>
                <mxCell id="78" value="YellowClearing" style="swimlane;fontStyle=0;childLayout=stackLayout;horizontal=1;startSize=26;fillColor=#ffe6cc;horizontalStack=0;resizeParent=1;resizeParentMax=0;resizeLast=0;collapsible=1;marginBottom=0;strokeColor=#d79b00;swimlaneFillColor=default;" parent="1" vertex="1">
                    <mxGeometry x="420" y="80" width="240" height="52" as="geometry"/>
                </mxCell>
                <mxCell id="79" value="- constructor(0xPrevImplementation)" style="text;strokeColor=none;fillColor=none;align=left;verticalAlign=top;spacingLeft=4;spacingRight=4;overflow=hidden;rotatable=0;points=[[0,0.5],[1,0.5]];portConstraint=eastwest;" parent="78" vertex="1">
                    <mxGeometry y="26" width="240" height="26" as="geometry"/>
                </mxCell>
                <mxCell id="83" value="YellowClearingV1" style="swimlane;fontStyle=0;childLayout=stackLayout;horizontal=1;startSize=26;fillColor=#ffe6cc;horizontalStack=0;resizeParent=1;resizeParentMax=0;resizeLast=0;collapsible=1;marginBottom=0;strokeColor=#d79b00;swimlaneFillColor=default;" parent="1" vertex="1">
                    <mxGeometry x="1280" y="80" width="160" height="130" as="geometry"/>
                </mxCell>
                <mxCell id="103" value="- getParticipantData()" style="text;strokeColor=none;fillColor=none;align=left;verticalAlign=top;spacingLeft=4;spacingRight=4;overflow=hidden;rotatable=0;points=[[0,0.5],[1,0.5]];portConstraint=eastwest;" parent="83" vertex="1">
                    <mxGeometry y="26" width="160" height="26" as="geometry"/>
                </mxCell>
                <mxCell id="104" value="- setParticipantData()" style="text;strokeColor=none;fillColor=none;align=left;verticalAlign=top;spacingLeft=4;spacingRight=4;overflow=hidden;rotatable=0;points=[[0,0.5],[1,0.5]];portConstraint=eastwest;" parent="83" vertex="1">
                    <mxGeometry y="52" width="160" height="26" as="geometry"/>
                </mxCell>
                <mxCell id="84" value="- migrateParticipant()" style="text;strokeColor=none;fillColor=none;align=left;verticalAlign=top;spacingLeft=4;spacingRight=4;overflow=hidden;rotatable=0;points=[[0,0.5],[1,0.5]];portConstraint=eastwest;" parent="83" vertex="1">
                    <mxGeometry y="78" width="160" height="26" as="geometry"/>
                </mxCell>
                <mxCell id="116" value="- REGISTRY_MAINTAINER_ROLE" style="text;strokeColor=none;fillColor=none;align=left;verticalAlign=top;spacingLeft=4;spacingRight=4;overflow=hidden;rotatable=0;points=[[0,0.5],[1,0.5]];portConstraint=eastwest;" parent="83" vertex="1">
                    <mxGeometry y="104" width="160" height="26" as="geometry"/>
                </mxCell>
                <mxCell id="87" value="&lt;font style=&quot;font-size: 20px&quot;&gt;&lt;span&gt;YellowClearingV2&lt;/span&gt;&lt;/font&gt;" style="text;html=1;align=center;verticalAlign=middle;resizable=0;points=[];autosize=1;strokeColor=none;fillColor=none;fontStyle=0" parent="1" vertex="1">
                    <mxGeometry x="10" y="10" width="170" height="20" as="geometry"/>
                </mxCell>
                <mxCell id="88" value="&lt;span style=&quot;font-size: 20px&quot;&gt;&lt;span&gt;Migration logic&lt;/span&gt;&lt;/span&gt;" style="text;html=1;align=center;verticalAlign=middle;resizable=0;points=[];autosize=1;strokeColor=none;fillColor=none;fontStyle=0" parent="1" vertex="1">
                    <mxGeometry x="1290" y="10" width="140" height="20" as="geometry"/>
                </mxCell>
                <mxCell id="91" value="YellowClearingV2" style="swimlane;fontStyle=0;childLayout=stackLayout;horizontal=1;startSize=26;fillColor=#ffe6cc;horizontalStack=0;resizeParent=1;resizeParentMax=0;resizeLast=0;collapsible=1;marginBottom=0;strokeColor=#d79b00;swimlaneFillColor=default;" parent="1" vertex="1">
                    <mxGeometry x="1685" y="80" width="160" height="130" as="geometry"/>
                </mxCell>
                <mxCell id="92" value="- migrateParticipant()" style="text;strokeColor=none;fillColor=none;align=left;verticalAlign=top;spacingLeft=4;spacingRight=4;overflow=hidden;rotatable=0;points=[[0,0.5],[1,0.5]];portConstraint=eastwest;" parent="91" vertex="1">
                    <mxGeometry y="26" width="160" height="26" as="geometry"/>
                </mxCell>
                <mxCell id="93" value="- migrateParticipantData()" style="text;strokeColor=none;fillColor=none;align=left;verticalAlign=top;spacingLeft=4;spacingRight=4;overflow=hidden;rotatable=0;points=[[0,0.5],[1,0.5]];portConstraint=eastwest;" parent="91" vertex="1">
                    <mxGeometry y="52" width="160" height="26" as="geometry"/>
                </mxCell>
                <mxCell id="96" value="- _migrateParticipantData()" style="text;strokeColor=none;fillColor=none;align=left;verticalAlign=top;spacingLeft=4;spacingRight=4;overflow=hidden;rotatable=0;points=[[0,0.5],[1,0.5]];portConstraint=eastwest;" parent="91" vertex="1">
                    <mxGeometry y="78" width="160" height="26" as="geometry"/>
                </mxCell>
                <mxCell id="114" value="- onlyRightImplementation" style="text;strokeColor=none;fillColor=none;align=left;verticalAlign=top;spacingLeft=4;spacingRight=4;overflow=hidden;rotatable=0;points=[[0,0.5],[1,0.5]];portConstraint=eastwest;" parent="91" vertex="1">
                    <mxGeometry y="104" width="160" height="26" as="geometry"/>
                </mxCell>
                <mxCell id="94" value="" style="endArrow=none;html=1;fontSize=20;" parent="1" edge="1">
                    <mxGeometry width="50" height="50" relative="1" as="geometry">
                        <mxPoint y="40" as="sourcePoint"/>
                        <mxPoint x="1000.8771715666119" y="40" as="targetPoint"/>
                    </mxGeometry>
                </mxCell>
                <mxCell id="95" value="" style="endArrow=none;html=1;fontSize=20;" parent="1" edge="1">
                    <mxGeometry width="50" height="50" relative="1" as="geometry">
                        <mxPoint x="1280" y="40" as="sourcePoint"/>
                        <mxPoint x="2280.8771715666117" y="40" as="targetPoint"/>
                    </mxGeometry>
                </mxCell>
                <mxCell id="97" style="edgeStyle=orthogonalEdgeStyle;html=1;fontSize=20;startArrow=none;startFill=0;endArrow=classic;endFill=1;" parent="1" source="84" target="93" edge="1">
                    <mxGeometry relative="1" as="geometry">
                        <Array as="points">
                            <mxPoint x="1560" y="171"/>
                            <mxPoint x="1560" y="145"/>
                        </Array>
                    </mxGeometry>
                </mxCell>
                <mxCell id="98" value="YellowClearingV3" style="swimlane;fontStyle=0;childLayout=stackLayout;horizontal=1;startSize=26;fillColor=#ffe6cc;horizontalStack=0;resizeParent=1;resizeParentMax=0;resizeLast=0;collapsible=1;marginBottom=0;strokeColor=#d79b00;swimlaneFillColor=default;" parent="1" vertex="1">
                    <mxGeometry x="2090" y="80" width="160" height="130" as="geometry"/>
                </mxCell>
                <mxCell id="99" value="- migrateParticipant()" style="text;strokeColor=none;fillColor=none;align=left;verticalAlign=top;spacingLeft=4;spacingRight=4;overflow=hidden;rotatable=0;points=[[0,0.5],[1,0.5]];portConstraint=eastwest;" parent="98" vertex="1">
                    <mxGeometry y="26" width="160" height="26" as="geometry"/>
                </mxCell>
                <mxCell id="100" value="- migrateParticipantData()" style="text;strokeColor=none;fillColor=none;align=left;verticalAlign=top;spacingLeft=4;spacingRight=4;overflow=hidden;rotatable=0;points=[[0,0.5],[1,0.5]];portConstraint=eastwest;" parent="98" vertex="1">
                    <mxGeometry y="52" width="160" height="26" as="geometry"/>
                </mxCell>
                <mxCell id="101" value="- _migrateParticipantData()" style="text;strokeColor=none;fillColor=none;align=left;verticalAlign=top;spacingLeft=4;spacingRight=4;overflow=hidden;rotatable=0;points=[[0,0.5],[1,0.5]];portConstraint=eastwest;" parent="98" vertex="1">
                    <mxGeometry y="78" width="160" height="26" as="geometry"/>
                </mxCell>
                <mxCell id="115" value="- onlyRightImplementation" style="text;strokeColor=none;fillColor=none;align=left;verticalAlign=top;spacingLeft=4;spacingRight=4;overflow=hidden;rotatable=0;points=[[0,0.5],[1,0.5]];portConstraint=eastwest;" parent="98" vertex="1">
                    <mxGeometry y="104" width="160" height="26" as="geometry"/>
                </mxCell>
                <mxCell id="102" style="edgeStyle=orthogonalEdgeStyle;html=1;fontSize=20;startArrow=none;startFill=0;endArrow=classic;endFill=1;" parent="1" source="92" target="100" edge="1">
                    <mxGeometry relative="1" as="geometry"/>
                </mxCell>
                <mxCell id="108" style="edgeStyle=orthogonalEdgeStyle;html=1;fontSize=16;startArrow=none;startFill=0;endArrow=classic;endFill=1;" parent="1" source="107" edge="1">
                    <mxGeometry relative="1" as="geometry">
                        <mxPoint x="1560" y="200" as="targetPoint"/>
                        <Array as="points">
                            <mxPoint x="1560" y="270"/>
                            <mxPoint x="1560" y="200"/>
                        </Array>
                    </mxGeometry>
                </mxCell>
                <mxCell id="109" style="edgeStyle=orthogonalEdgeStyle;html=1;fontSize=16;startArrow=none;startFill=0;endArrow=classic;endFill=1;" parent="1" source="107" edge="1">
                    <mxGeometry relative="1" as="geometry">
                        <mxPoint x="1965" y="200" as="targetPoint"/>
                        <mxPoint x="1940.0000000000002" y="270" as="sourcePoint"/>
                    </mxGeometry>
                </mxCell>
                <mxCell id="107" value="&lt;font&gt;&lt;span style=&quot;font-size: 16px&quot;&gt;Different migrate mechanisms&lt;/span&gt;&lt;br&gt;&lt;font size=&quot;1&quot;&gt;&lt;i style=&quot;font-size: 13px&quot;&gt;All participants must migrate to V2 first&lt;/i&gt;&lt;/font&gt;&lt;br&gt;&lt;/font&gt;" style="text;html=1;align=center;verticalAlign=middle;resizable=0;points=[];autosize=1;strokeColor=none;fillColor=none;fontSize=20;" parent="1" vertex="1">
                    <mxGeometry x="1645" y="240" width="240" height="60" as="geometry"/>
                </mxCell>
                <mxCell id="117" value="&lt;font&gt;&lt;span style=&quot;font-size: 16px&quot;&gt;Old&lt;/span&gt;&lt;br&gt;&lt;font size=&quot;1&quot;&gt;&lt;i style=&quot;font-size: 12px&quot;&gt;(pre V2)&lt;/i&gt;&lt;/font&gt;&lt;br&gt;&lt;/font&gt;" style="text;html=1;align=center;verticalAlign=middle;resizable=0;points=[];autosize=1;strokeColor=none;fillColor=none;fontSize=20;" parent="1" vertex="1">
                    <mxGeometry x="1470" y="305" width="60" height="60" as="geometry"/>
                </mxCell>
                <mxCell id="119" value="&lt;font&gt;&lt;span style=&quot;font-size: 16px&quot;&gt;New&lt;/span&gt;&lt;br&gt;&lt;font size=&quot;1&quot;&gt;&lt;i style=&quot;font-size: 12px&quot;&gt;(post V2)&lt;/i&gt;&lt;/font&gt;&lt;br&gt;&lt;/font&gt;" style="text;html=1;align=center;verticalAlign=middle;resizable=0;points=[];autosize=1;strokeColor=none;fillColor=none;fontSize=20;" parent="1" vertex="1">
                    <mxGeometry x="2000" y="305" width="60" height="60" as="geometry"/>
                </mxCell>
                <mxCell id="120" value="YellowClearingV1" style="shape=umlLifeline;perimeter=lifelinePerimeter;whiteSpace=wrap;html=1;container=1;collapsible=0;recursiveResize=0;outlineConnect=0;fontSize=13;strokeWidth=1;fillColor=#ffe6cc;strokeColor=#d79b00;" parent="1" vertex="1">
                    <mxGeometry x="1290" y="380" width="140" height="460" as="geometry"/>
                </mxCell>
                <mxCell id="148" style="edgeStyle=orthogonalEdgeStyle;html=1;exitX=1;exitY=0.5;exitDx=0;exitDy=0;entryX=1;entryY=0.5;entryDx=0;entryDy=0;fontSize=12;fontColor=#808080;startArrow=none;startFill=0;endArrow=classic;endFill=1;curved=1;" parent="120" source="124" target="146" edge="1">
                    <mxGeometry relative="1" as="geometry">
                        <Array as="points">
                            <mxPoint x="220" y="112"/>
                            <mxPoint x="220" y="192"/>
                        </Array>
                    </mxGeometry>
                </mxCell>
                <mxCell id="149" value="&lt;font color=&quot;#000000&quot;&gt;participant&lt;/font&gt;" style="edgeLabel;html=1;align=center;verticalAlign=middle;resizable=0;points=[];fontSize=12;fontColor=#808080;" parent="148" vertex="1" connectable="0">
                    <mxGeometry x="0.6566" y="-3" relative="1" as="geometry">
                        <mxPoint x="9" y="-9" as="offset"/>
                    </mxGeometry>
                </mxCell>
                <mxCell id="124" value="migrateParticipant()" style="html=1;fontSize=12;strokeWidth=1;dashed=1;dashPattern=1 1;" parent="120" vertex="1">
                    <mxGeometry x="-5" y="100" width="150" height="25" as="geometry"/>
                </mxCell>
                <mxCell id="146" value="&lt;i&gt;&lt;font color=&quot;#808080&quot;&gt;participant.status = migrated&lt;/font&gt;&lt;/i&gt;" style="html=1;fontSize=12;strokeWidth=1;dashed=1;dashPattern=1 1;strokeColor=#808080;" parent="120" vertex="1">
                    <mxGeometry x="-5" y="180" width="150" height="25" as="geometry"/>
                </mxCell>
                <mxCell id="121" value="YellowClearingV2" style="shape=umlLifeline;perimeter=lifelinePerimeter;whiteSpace=wrap;html=1;container=1;collapsible=0;recursiveResize=0;outlineConnect=0;fontSize=13;strokeWidth=1;fillColor=#fff2cc;strokeColor=#d6b656;" parent="1" vertex="1">
                    <mxGeometry x="1579" y="380" width="140" height="460" as="geometry"/>
                </mxCell>
                <mxCell id="161" style="edgeStyle=orthogonalEdgeStyle;curved=1;html=1;exitX=0;exitY=0.5;exitDx=0;exitDy=0;entryX=0;entryY=0.5;entryDx=0;entryDy=0;fontSize=11;fontColor=#000000;startArrow=none;startFill=0;endArrow=classic;endFill=1;" parent="121" source="125" target="160" edge="1">
                    <mxGeometry relative="1" as="geometry">
                        <Array as="points">
                            <mxPoint x="-69" y="272"/>
                            <mxPoint x="-69" y="352"/>
                        </Array>
                    </mxGeometry>
                </mxCell>
                <mxCell id="162" value="&lt;font color=&quot;#808080&quot;&gt;iterate through&lt;br&gt;chain and call on&lt;br&gt;newest impl&lt;/font&gt;" style="edgeLabel;html=1;align=center;verticalAlign=middle;resizable=0;points=[];fontSize=11;fontColor=#000000;" parent="161" vertex="1" connectable="0">
                    <mxGeometry x="-0.1091" y="2" relative="1" as="geometry">
                        <mxPoint y="16" as="offset"/>
                    </mxGeometry>
                </mxCell>
                <mxCell id="125" value="migrateParticipantData()&lt;br style=&quot;font-size: 11px&quot;&gt;&lt;font size=&quot;1&quot; color=&quot;#cc0000&quot;&gt;PREV_IMPLEMENTATION_ROLE&lt;/font&gt;" style="html=1;fontSize=12;strokeWidth=1;dashed=1;dashPattern=1 1;" parent="121" vertex="1">
                    <mxGeometry x="-6" y="259.5" width="150" height="25" as="geometry"/>
                </mxCell>
                <mxCell id="152" value="&lt;i&gt;&lt;font color=&quot;#808080&quot;&gt;participant.data = data&lt;/font&gt;&lt;/i&gt;" style="html=1;fontSize=12;strokeWidth=1;dashed=1;dashPattern=1 1;strokeColor=#808080;" parent="121" vertex="1">
                    <mxGeometry x="-6" y="420" width="150" height="25" as="geometry"/>
                </mxCell>
                <mxCell id="163" style="edgeStyle=orthogonalEdgeStyle;curved=1;html=1;exitX=0;exitY=0.5;exitDx=0;exitDy=0;entryX=0;entryY=0.5;entryDx=0;entryDy=0;fontSize=11;fontColor=#808080;startArrow=none;startFill=0;endArrow=classic;endFill=1;" parent="121" source="160" target="152" edge="1">
                    <mxGeometry relative="1" as="geometry">
                        <Array as="points">
                            <mxPoint x="-69" y="352"/>
                            <mxPoint x="-69" y="432"/>
                        </Array>
                    </mxGeometry>
                </mxCell>
                <mxCell id="164" value="&lt;font color=&quot;#000000&quot;&gt;participant,&lt;br&gt;data&lt;/font&gt;" style="edgeLabel;html=1;align=center;verticalAlign=middle;resizable=0;points=[];fontSize=11;fontColor=#808080;" parent="163" vertex="1" connectable="0">
                    <mxGeometry x="0.1006" y="1" relative="1" as="geometry">
                        <mxPoint y="20" as="offset"/>
                    </mxGeometry>
                </mxCell>
                <mxCell id="160" value="_migrateParticipantData()" style="html=1;fontSize=12;strokeWidth=1;dashed=1;dashPattern=1 1;" parent="121" vertex="1">
                    <mxGeometry x="-1" y="340" width="150" height="25" as="geometry"/>
                </mxCell>
                <mxCell id="150" style="edgeStyle=orthogonalEdgeStyle;curved=1;html=1;exitX=1;exitY=0.5;exitDx=0;exitDy=0;entryX=0;entryY=0.5;entryDx=0;entryDy=0;fontSize=12;fontColor=#000000;startArrow=none;startFill=0;endArrow=classic;endFill=1;" parent="1" source="124" target="125" edge="1">
                    <mxGeometry relative="1" as="geometry">
                        <Array as="points">
                            <mxPoint x="1530" y="492"/>
                            <mxPoint x="1530" y="652"/>
                        </Array>
                    </mxGeometry>
                </mxCell>
                <mxCell id="151" value="participant,&lt;br&gt;data" style="edgeLabel;html=1;align=center;verticalAlign=middle;resizable=0;points=[];fontSize=12;fontColor=#000000;" parent="150" vertex="1" connectable="0">
                    <mxGeometry x="0.3369" y="-2" relative="1" as="geometry">
                        <mxPoint x="2" y="28" as="offset"/>
                    </mxGeometry>
                </mxCell>
                <mxCell id="155" value="" style="verticalLabelPosition=bottom;verticalAlign=top;html=1;shape=mxgraph.basic.tick;fontSize=10;strokeWidth=1;fillColor=#d5e8d4;strokeColor=#82b366;" parent="1" vertex="1">
                    <mxGeometry x="1556.0500000000002" y="654" width="11.9" height="14" as="geometry"/>
                </mxCell>
                <mxCell id="165" value="We have to allow for skipping migrating for this version in favour of the next one if data has not changed" style="text;html=1;align=center;verticalAlign=middle;resizable=0;points=[];autosize=1;strokeColor=none;fillColor=none;fontSize=11;fontColor=#000000;" parent="1" vertex="1">
                    <mxGeometry x="2655" y="76" width="520" height="20" as="geometry"/>
                </mxCell>
                <mxCell id="166" value="While processing chained upgrade (if current implementation is not the second-old one), migration must be&lt;br&gt;performed on each consecutive implementation not to lose changes in data schema" style="text;html=1;align=center;verticalAlign=middle;resizable=0;points=[];autosize=1;strokeColor=none;fillColor=none;fontSize=11;fontColor=#000000;" parent="1" vertex="1">
                    <mxGeometry x="2650" y="111" width="530" height="30" as="geometry"/>
                </mxCell>
                <mxCell id="167" value="&lt;font&gt;&lt;span style=&quot;font-size: 16px&quot;&gt;Required upgradeability functionality&lt;/span&gt;&lt;br&gt;&lt;/font&gt;" style="text;html=1;align=center;verticalAlign=middle;resizable=0;points=[];autosize=1;strokeColor=none;fillColor=none;fontSize=20;" parent="1" vertex="1">
                    <mxGeometry x="2780" y="31" width="270" height="30" as="geometry"/>
                </mxCell>
                <mxCell id="168" value="YellowClearingV3" style="shape=umlLifeline;perimeter=lifelinePerimeter;whiteSpace=wrap;html=1;container=1;collapsible=0;recursiveResize=0;outlineConnect=0;fontSize=13;strokeWidth=1;fillColor=#d5e8d4;strokeColor=#82b366;" vertex="1" parent="1">
                    <mxGeometry x="2125" y="380" width="140" height="860" as="geometry"/>
                </mxCell>
                <mxCell id="188" value="migrateParticipantData()&lt;br&gt;&lt;font color=&quot;#cc0000&quot; style=&quot;font-size: 10px&quot;&gt;onlyPrevImplementation&lt;/font&gt;" style="html=1;fontSize=12;strokeWidth=1;dashed=1;dashPattern=1 1;" vertex="1" parent="168">
                    <mxGeometry x="-9.237055564881302e-14" y="659.2199999999999" width="150" height="25" as="geometry"/>
                </mxCell>
                <mxCell id="204" style="edgeStyle=orthogonalEdgeStyle;curved=1;html=1;exitX=1;exitY=0.5;exitDx=0;exitDy=0;entryX=1;entryY=0.5;entryDx=0;entryDy=0;" edge="1" parent="168" source="193" target="188">
                    <mxGeometry relative="1" as="geometry">
                        <Array as="points">
                            <mxPoint x="201" y="592.22"/>
                            <mxPoint x="201" y="672.2199999999999"/>
                        </Array>
                    </mxGeometry>
                </mxCell>
                <mxCell id="193" value="migrateParticipantDataConsecutive()&lt;br&gt;&lt;span style=&quot;color: rgb(204 , 0 , 0) ; font-size: 10px&quot;&gt;onlyPrevImplementation&lt;/span&gt;" style="html=1;fontSize=12;strokeWidth=1;dashed=1;dashPattern=1 1;" vertex="1" parent="168">
                    <mxGeometry x="-9.237055564881302e-14" y="579.22" width="150" height="25" as="geometry"/>
                </mxCell>
                <mxCell id="173" value="YellowClearingV2" style="shape=umlLifeline;perimeter=lifelinePerimeter;whiteSpace=wrap;html=1;container=1;collapsible=0;recursiveResize=0;outlineConnect=0;fontSize=13;strokeWidth=1;fillColor=#fff2cc;strokeColor=#d6b656;" vertex="1" parent="1">
                    <mxGeometry x="1835" y="380" width="145" height="860" as="geometry"/>
                </mxCell>
                <mxCell id="217" style="edgeStyle=orthogonalEdgeStyle;html=1;exitX=1;exitY=0.5;exitDx=0;exitDy=0;entryX=1;entryY=0.5;entryDx=0;entryDy=0;curved=1;" edge="1" parent="173" source="176" target="214">
                    <mxGeometry relative="1" as="geometry">
                        <Array as="points">
                            <mxPoint x="240" y="112"/>
                            <mxPoint x="240" y="434"/>
                        </Array>
                    </mxGeometry>
                </mxCell>
                <mxCell id="174" style="edgeStyle=orthogonalEdgeStyle;html=1;fontSize=10;fontColor=#CC0000;startArrow=none;startFill=0;endArrow=classic;endFill=1;entryX=1;entryY=0.5;entryDx=0;entryDy=0;exitX=1;exitY=0.5;exitDx=0;exitDy=0;curved=1;" edge="1" parent="173" source="176">
                    <mxGeometry relative="1" as="geometry">
                        <Array as="points">
                            <mxPoint x="200" y="112"/>
                            <mxPoint x="200" y="192"/>
                        </Array>
                        <mxPoint x="140" y="191.5" as="targetPoint"/>
                    </mxGeometry>
                </mxCell>
                <mxCell id="175" value="&lt;font style=&quot;font-size: 12px&quot; color=&quot;#000000&quot;&gt;participant,&lt;br&gt;data&lt;br&gt;&lt;/font&gt;" style="edgeLabel;html=1;align=center;verticalAlign=middle;resizable=0;points=[];fontSize=10;fontColor=#CC0000;" vertex="1" connectable="0" parent="174">
                    <mxGeometry x="0.0025" relative="1" as="geometry">
                        <mxPoint x="-10" y="260" as="offset"/>
                    </mxGeometry>
                </mxCell>
                <mxCell id="176" value="migrateParticipant()" style="html=1;fontSize=12;strokeWidth=1;dashed=1;dashPattern=1 1;" vertex="1" parent="173">
                    <mxGeometry x="-5" y="99" width="150" height="25" as="geometry"/>
                </mxCell>
                <mxCell id="227" style="edgeStyle=orthogonalEdgeStyle;curved=1;html=1;exitX=1;exitY=0.5;exitDx=0;exitDy=0;entryX=1;entryY=0.5;entryDx=0;entryDy=0;fontColor=#808080;strokeColor=#808080;" edge="1" parent="173" source="213" target="226">
                    <mxGeometry relative="1" as="geometry">
                        <Array as="points">
                            <mxPoint x="200" y="192"/>
                            <mxPoint x="200" y="272"/>
                        </Array>
                    </mxGeometry>
                </mxCell>
                <mxCell id="213" value="_migrateLockedTokensTo()&lt;br&gt;&lt;i&gt;&lt;font color=&quot;#808080&quot;&gt;send tokens to rightmostImpl&lt;/font&gt;&lt;/i&gt;" style="html=1;fontSize=12;strokeWidth=1;dashed=1;dashPattern=1 1;" vertex="1" parent="173">
                    <mxGeometry x="-5" y="180" width="150" height="25" as="geometry"/>
                </mxCell>
                <mxCell id="225" style="edgeStyle=orthogonalEdgeStyle;curved=1;html=1;exitX=1;exitY=0.5;exitDx=0;exitDy=0;entryX=1;entryY=0.5;entryDx=0;entryDy=0;fontColor=#808080;strokeColor=#808080;" edge="1" parent="173" source="214" target="223">
                    <mxGeometry relative="1" as="geometry">
                        <Array as="points">
                            <mxPoint x="200" y="433.05"/>
                            <mxPoint x="200" y="513.05"/>
                        </Array>
                    </mxGeometry>
                </mxCell>
                <mxCell id="214" value="_migrateParticipantData()" style="html=1;fontSize=12;strokeWidth=1;dashed=1;dashPattern=1 1;" vertex="1" parent="173">
                    <mxGeometry x="-5" y="421.05" width="150" height="25" as="geometry"/>
                </mxCell>
                <mxCell id="223" value="&lt;i&gt;&lt;font color=&quot;#808080&quot;&gt;participant.status = migrated&lt;/font&gt;&lt;/i&gt;" style="html=1;fontSize=12;strokeWidth=1;dashed=1;dashPattern=1 1;strokeColor=#808080;" vertex="1" parent="173">
                    <mxGeometry x="-5" y="501.05" width="150" height="25" as="geometry"/>
                </mxCell>
                <mxCell id="226" value="&lt;font color=&quot;#808080&quot;&gt;&lt;i&gt;yellow.transfer(rightmostImpl, amount)&lt;/i&gt;&lt;/font&gt;" style="html=1;fontSize=12;strokeWidth=1;dashed=1;dashPattern=1 1;strokeColor=#808080;" vertex="1" parent="173">
                    <mxGeometry x="-5" y="260" width="150" height="25" as="geometry"/>
                </mxCell>
                <mxCell id="181" value="" style="endArrow=none;html=1;" edge="1" parent="1">
                    <mxGeometry width="50" height="50" relative="1" as="geometry">
                        <mxPoint x="1770" y="840" as="sourcePoint"/>
                        <mxPoint x="1770" y="380" as="targetPoint"/>
                    </mxGeometry>
                </mxCell>
                <mxCell id="183" value="YellowClearingV4" style="shape=umlLifeline;perimeter=lifelinePerimeter;whiteSpace=wrap;html=1;container=1;collapsible=0;recursiveResize=0;outlineConnect=0;fontSize=13;strokeWidth=1;fillColor=#e1d5e7;strokeColor=#9673a6;" vertex="1" parent="1">
                    <mxGeometry x="2415" y="380" width="145" height="860" as="geometry"/>
                </mxCell>
                <mxCell id="196" value="migrateParticipantData()&lt;br&gt;&lt;span style=&quot;color: rgb(204 , 0 , 0) ; font-size: 10px&quot;&gt;onlyPrevImplementation&lt;/span&gt;" style="html=1;fontSize=12;strokeWidth=1;dashed=1;dashPattern=1 1;" vertex="1" parent="183">
                    <mxGeometry x="-5.450000000000003" y="819.2199999999999" width="150" height="25" as="geometry"/>
                </mxCell>
                <mxCell id="210" style="edgeStyle=orthogonalEdgeStyle;curved=1;html=1;exitX=1;exitY=0.5;exitDx=0;exitDy=0;entryX=1;entryY=0.5;entryDx=0;entryDy=0;" edge="1" parent="183" source="201" target="196">
                    <mxGeometry relative="1" as="geometry">
                        <Array as="points">
                            <mxPoint x="200" y="752.2199999999999"/>
                            <mxPoint x="200" y="832.2199999999999"/>
                        </Array>
                    </mxGeometry>
                </mxCell>
                <mxCell id="201" value="migrateParticipantDataConsecutive()&lt;br&gt;&lt;span style=&quot;color: rgb(204 , 0 , 0) ; font-size: 10px&quot;&gt;onlyPrevImplementation&lt;/span&gt;" style="html=1;fontSize=12;strokeWidth=1;dashed=1;dashPattern=1 1;" vertex="1" parent="183">
                    <mxGeometry x="-5.900000000000091" y="739.2199999999999" width="150" height="25" as="geometry"/>
                </mxCell>
                <mxCell id="215" value="migrateLockedTokens()&lt;br&gt;&lt;font color=&quot;#cc0000&quot; style=&quot;font-size: 10px&quot;&gt;onlyLeftImplementation&lt;/font&gt;" style="html=1;fontSize=12;strokeWidth=1;dashed=1;dashPattern=1 1;" vertex="1" parent="183">
                    <mxGeometry x="-5" y="341.05" width="155" height="25" as="geometry"/>
                </mxCell>
                <mxCell id="202" style="edgeStyle=orthogonalEdgeStyle;curved=1;html=1;exitX=1;exitY=0.5;exitDx=0;exitDy=0;entryX=0;entryY=0.5;entryDx=0;entryDy=0;" edge="1" parent="1" source="214" target="193">
                    <mxGeometry relative="1" as="geometry">
                        <mxPoint x="1975" y="652.55" as="sourcePoint"/>
                    </mxGeometry>
                </mxCell>
                <mxCell id="203" value="participant,&lt;br&gt;data v2" style="edgeLabel;html=1;align=center;verticalAlign=middle;resizable=0;points=[];" vertex="1" connectable="0" parent="202">
                    <mxGeometry x="-0.0041" y="-1" relative="1" as="geometry">
                        <mxPoint x="3" y="29" as="offset"/>
                    </mxGeometry>
                </mxCell>
                <mxCell id="206" style="edgeStyle=orthogonalEdgeStyle;curved=1;html=1;exitX=1;exitY=0.5;exitDx=0;exitDy=0;entryX=0;entryY=0.5;entryDx=0;entryDy=0;" edge="1" parent="1" source="193" target="201">
                    <mxGeometry relative="1" as="geometry">
                        <Array as="points">
                            <mxPoint x="2345" y="972.22"/>
                            <mxPoint x="2345" y="1132.2200000000003"/>
                        </Array>
                    </mxGeometry>
                </mxCell>
                <mxCell id="209" value="participant,&lt;br&gt;data v3" style="edgeLabel;html=1;align=center;verticalAlign=middle;resizable=0;points=[];" vertex="1" connectable="0" parent="206">
                    <mxGeometry x="0.3069" y="4" relative="1" as="geometry">
                        <mxPoint x="6" y="18" as="offset"/>
                    </mxGeometry>
                </mxCell>
                <mxCell id="207" value="participant,&lt;br&gt;data v2" style="edgeLabel;html=1;align=center;verticalAlign=middle;resizable=0;points=[];" vertex="1" connectable="0" parent="1">
                    <mxGeometry x="2295" y="1033.22" as="geometry"/>
                </mxCell>
                <mxCell id="212" value="participant,&lt;br&gt;data v3" style="edgeLabel;html=1;align=center;verticalAlign=middle;resizable=0;points=[];" vertex="1" connectable="0" parent="1">
                    <mxGeometry x="2615" y="1175" as="geometry"/>
                </mxCell>
                <mxCell id="216" style="html=1;exitX=1;exitY=0.5;exitDx=0;exitDy=0;entryX=0;entryY=0.5;entryDx=0;entryDy=0;" edge="1" parent="1" source="213" target="215">
                    <mxGeometry relative="1" as="geometry"/>
                </mxCell>
                <mxCell id="219" value="participant,&lt;br&gt;tokenAmount" style="edgeLabel;html=1;align=center;verticalAlign=middle;resizable=0;points=[];" vertex="1" connectable="0" parent="216">
                    <mxGeometry x="0.6842" y="1" relative="1" as="geometry">
                        <mxPoint as="offset"/>
                    </mxGeometry>
                </mxCell>
                <mxCell id="218" value="&lt;font style=&quot;font-size: 12px&quot; color=&quot;#000000&quot;&gt;rightmostImpl&lt;br&gt;participant,&lt;br&gt;tokenAmount&lt;br&gt;&lt;/font&gt;" style="edgeLabel;html=1;align=center;verticalAlign=middle;resizable=0;points=[];fontSize=10;fontColor=#CC0000;" vertex="1" connectable="0" parent="1">
                    <mxGeometry x="2005" y="540" as="geometry"/>
                </mxCell>
                <mxCell id="221" style="edgeStyle=orthogonalEdgeStyle;curved=1;html=1;fontColor=#808080;strokeColor=#808080;" edge="1" parent="1" source="220">
                    <mxGeometry relative="1" as="geometry">
                        <mxPoint x="2105" y="1052.22" as="targetPoint"/>
                    </mxGeometry>
                </mxCell>
                <mxCell id="220" value="can be skipped if no changes&lt;br&gt;were made to data schema" style="text;html=1;align=right;verticalAlign=middle;resizable=0;points=[];autosize=1;strokeColor=none;fillColor=none;fontColor=#808080;" vertex="1" parent="1">
                    <mxGeometry x="1885" y="1037.22" width="170" height="30" as="geometry"/>
                </mxCell>
                <mxCell id="222" value="Migrated participant should not be able to lock tokens" style="text;html=1;align=center;verticalAlign=middle;resizable=0;points=[];autosize=1;strokeColor=none;fillColor=none;fontSize=11;fontColor=#000000;" vertex="1" parent="1">
                    <mxGeometry x="2780" y="161" width="280" height="20" as="geometry"/>
                </mxCell>
                <mxCell id="238" style="edgeStyle=orthogonalEdgeStyle;html=1;fontColor=#808080;strokeColor=#000000;" edge="1" parent="1" source="230" target="22">
                    <mxGeometry relative="1" as="geometry">
                        <Array as="points">
                            <mxPoint x="890" y="480"/>
                            <mxPoint x="540" y="480"/>
                        </Array>
                    </mxGeometry>
                </mxCell>
                <mxCell id="230" value="Channel" style="swimlane;fontStyle=0;childLayout=stackLayout;horizontal=1;startSize=26;fillColor=#ffe6cc;horizontalStack=0;resizeParent=1;resizeParentMax=0;resizeLast=0;collapsible=1;marginBottom=0;strokeColor=#d79b00;swimlaneFillColor=default;" vertex="1" parent="1">
                    <mxGeometry x="820" y="520" width="140" height="170" as="geometry"/>
                </mxCell>
                <mxCell id="233" value="- activeChannels" style="text;strokeColor=none;fillColor=none;align=left;verticalAlign=top;spacingLeft=4;spacingRight=4;overflow=hidden;rotatable=0;points=[[0,0.5],[1,0.5]];portConstraint=eastwest;" vertex="1" parent="230">
                    <mxGeometry y="26" width="140" height="26" as="geometry"/>
                </mxCell>
                <mxCell id="234" value="- terminatedChannels" style="text;strokeColor=none;fillColor=none;align=left;verticalAlign=top;spacingLeft=4;spacingRight=4;overflow=hidden;rotatable=0;points=[[0,0.5],[1,0.5]];portConstraint=eastwest;" vertex="1" parent="230">
                    <mxGeometry y="52" width="140" height="26" as="geometry"/>
                </mxCell>
                <mxCell id="231" value="- engagedChannels()" style="text;strokeColor=none;fillColor=none;align=left;verticalAlign=top;spacingLeft=4;spacingRight=4;overflow=hidden;rotatable=0;points=[[0,0.5],[1,0.5]];portConstraint=eastwest;" vertex="1" parent="230">
                    <mxGeometry y="78" width="140" height="26" as="geometry"/>
                </mxCell>
                <mxCell id="232" value="- availableChannels()" style="text;strokeColor=none;fillColor=none;align=left;verticalAlign=top;spacingLeft=4;spacingRight=4;overflow=hidden;rotatable=0;points=[[0,0.5],[1,0.5]];portConstraint=eastwest;" vertex="1" parent="230">
                    <mxGeometry y="104" width="140" height="26" as="geometry"/>
                </mxCell>
                <mxCell id="235" value="- activate, deactivate,&#10;terminate..." style="text;strokeColor=none;fillColor=none;align=left;verticalAlign=top;spacingLeft=4;spacingRight=4;overflow=hidden;rotatable=0;points=[[0,0.5],[1,0.5]];portConstraint=eastwest;" vertex="1" parent="230">
                    <mxGeometry y="130" width="140" height="40" as="geometry"/>
                </mxCell>
                <mxCell id="241" value="Think:&lt;br&gt;not inherit from Stacking&lt;br&gt;&amp;nbsp;to avoid migration" style="text;html=1;align=right;verticalAlign=middle;resizable=0;points=[];autosize=1;strokeColor=none;fillColor=none;fontColor=#000000;" vertex="1" parent="1">
                    <mxGeometry x="650" y="730" width="140" height="50" as="geometry"/>
                </mxCell>
                <mxCell id="247" style="edgeStyle=orthogonalEdgeStyle;html=1;fontColor=#000000;strokeColor=#000000;" edge="1" parent="1" source="242" target="230">
                    <mxGeometry relative="1" as="geometry">
                        <Array as="points">
                            <mxPoint x="980" y="740"/>
                            <mxPoint x="920" y="740"/>
                        </Array>
                    </mxGeometry>
                </mxCell>
                <mxCell id="242" value="Statistics" style="swimlane;fontStyle=0;childLayout=stackLayout;horizontal=1;startSize=26;fillColor=#ffe6cc;horizontalStack=0;resizeParent=1;resizeParentMax=0;resizeLast=0;collapsible=1;marginBottom=0;strokeColor=#d79b00;swimlaneFillColor=default;" vertex="1" parent="1">
                    <mxGeometry x="910" y="780" width="140" height="130" as="geometry"/>
                </mxCell>
                <mxCell id="243" value="- yellowToken" style="text;strokeColor=none;fillColor=none;align=left;verticalAlign=top;spacingLeft=4;spacingRight=4;overflow=hidden;rotatable=0;points=[[0,0.5],[1,0.5]];portConstraint=eastwest;" vertex="1" parent="242">
                    <mxGeometry y="26" width="140" height="26" as="geometry"/>
                </mxCell>
                <mxCell id="244" value="- setYellowToken()" style="text;strokeColor=none;fillColor=none;align=left;verticalAlign=top;spacingLeft=4;spacingRight=4;overflow=hidden;rotatable=0;points=[[0,0.5],[1,0.5]];portConstraint=eastwest;" vertex="1" parent="242">
                    <mxGeometry y="52" width="140" height="26" as="geometry"/>
                </mxCell>
                <mxCell id="245" value="- stack()" style="text;strokeColor=none;fillColor=none;align=left;verticalAlign=top;spacingLeft=4;spacingRight=4;overflow=hidden;rotatable=0;points=[[0,0.5],[1,0.5]];portConstraint=eastwest;" vertex="1" parent="242">
                    <mxGeometry y="78" width="140" height="26" as="geometry"/>
                </mxCell>
                <mxCell id="246" value="- unstack()" style="text;strokeColor=none;fillColor=none;align=left;verticalAlign=top;spacingLeft=4;spacingRight=4;overflow=hidden;rotatable=0;points=[[0,0.5],[1,0.5]];portConstraint=eastwest;" vertex="1" parent="242">
                    <mxGeometry y="104" width="140" height="26" as="geometry"/>
                </mxCell>
            </root>
        </mxGraphModel>
    </diagram>
</mxfile>
